Coordinates
version=1
nRows=21
nColumns=28
inDegrees=yes

Units are S.I. units (second, meters, Newtons, ...)
Angles are in degrees.

endheader
time	pelvis_tilt	pelvis_list	pelvis_rotation	pelvis_tx	pelvis_ty	pelvis_tz	hip_flexion_r	hip_adduction_r	hip_rotation_r	knee_angle_r	ankle_angle_r	subtalar_angle_r	mtp_angle_r	hip_flexion_l	hip_adduction_l	hip_rotation_l	knee_angle_l	socket_flexion	socket_adduction	socket_rotation	socket_tx	socket_ty	socket_tz	foot_flex	lumbar_extension	lumbar_bending	lumbar_rotation
      0.97083333	      8.84904323	     -0.48282671	     -9.91556242	      0.47110105	      1.03820156	      0.30245015	      0.98634006	      0.59979993	     -5.52730396	    -25.00672986	      1.37415509	      0.04440332	     38.20939646	     11.01885424	     -1.72105951	     -7.27711051	    -76.00317706	    -11.32395033	      0.00000000	      0.00000000	      0.00000000	      0.06966195	      0.00000000	      2.11431348	    -19.45962128	     -0.59083275	     12.88921380
      0.97500000	      8.91584977	     -0.42626419	    -10.17974962	      0.47559481	      1.03924649	      0.30297475	      0.51246202	      0.42669111	     -5.53847727	    -24.70500228	      1.21746548	      0.50605489	     38.38454248	     11.24409218	     -1.59671676	     -7.22728973	    -75.33760020	    -11.32375979	      0.00000000	      0.00000000	      0.00000000	      0.06833233	      0.00000000	      2.13692563	    -19.52498635	     -0.75326722	     13.16973730
      0.97916667	      8.95879547	     -0.33665262	    -10.44192174	      0.48005136	      1.04028227	      0.30344311	      0.06247310	      0.22571831	     -5.49944394	    -24.38092246	      1.11497551	      0.88259569	     38.49673392	     11.49352299	     -1.42356370	     -7.14790537	    -74.61951079	    -11.32244640	      0.00000000	      0.00000000	      0.00000000	      0.06701092	      0.00000000	      2.07159923	    -19.57914203	     -0.91887951	     13.35732223
      0.98333333	      9.31045089	     -0.25077112	    -10.60467402	      0.48492845	      1.04161720	      0.30360939	     -0.72742221	     -0.19617401	     -6.15025581	    -24.03396204	      0.54385346	      2.15150415	     41.47882366	     11.23624860	     -1.12084984	     -6.95733890	    -73.63955908	    -11.31905686	      0.00000000	      0.00000000	      0.00000000	      0.06487997	      0.00000000	      2.02797534	    -19.92411046	     -1.10701418	     13.50999071
      0.98750000	      9.27064666	     -0.18188801	    -10.86268421	      0.48933282	      1.04246975	      0.30415109	     -1.06859142	     -0.34397547	     -6.08768107	    -23.75888708	      0.51652153	      2.26357096	     41.35449889	     11.56293455	     -1.00202845	     -6.85854565	    -72.88523479	    -11.31821424	      0.00000000	      0.00000000	      0.00000000	      0.06351689	      0.00000000	      1.97166667	    -19.88280599	     -1.24359324	     13.58638285
      0.99166667	      9.23407780	     -0.12900479	    -11.11606549	      0.49369791	      1.04330084	      0.30468025	     -1.41273089	     -0.47970230	     -6.04085683	    -23.48007485	      0.45455689	      2.42046463	     41.23951170	     11.87889629	     -0.89546797	     -6.73299740	    -72.10708341	    -11.31576563	      0.00000000	      0.00000000	      0.00000000	      0.06213577	      0.00000000	      1.93223594	    -19.85802745	     -1.37910064	     13.68581789
      0.99583333	      9.19131180	     -0.08421795	    -11.35346587	      0.49808036	      1.04409326	      0.30511896	     -1.74565562	     -0.61500828	     -6.00274192	    -23.21857413	      0.37908712	      2.59268945	     41.13942722	     12.16919164	     -0.78899713	     -6.58142693	    -71.27004285	    -11.31568076	      0.00000000	      0.00000000	      0.00000000	      0.06063553	      0.00000000	      1.91689247	    -19.83061823	     -1.45676320	     13.79384737
      1.00000000	      9.46150515	     -0.14344171	    -11.58631810	      0.50263666	      1.04532414	      0.30549155	     -2.52703835	     -0.75082390	     -6.11684772	    -22.73905375	     -0.05856618	      3.69163886	     41.69358740	     11.95494476	     -0.68494480	     -6.36457054	    -70.20142914	    -11.31171548	      0.00000000	      0.00000000	      0.00000000	      0.05850332	      0.00000000	      1.86341951	    -20.13621063	     -1.55122827	     14.36664988
      1.00416667	      9.39596008	     -0.09307820	    -11.85212485	      0.50708971	      1.04598021	      0.30599127	     -2.79691413	     -0.90741203	     -6.13334933	    -22.56365878	     -0.04079526	      3.74928213	     41.60124537	     12.19535035	     -0.57677419	     -6.21000445	    -69.23413025	    -11.30636739	      0.00000000	      0.00000000	      0.00000000	      0.05672046	      0.00000000	      1.84776367	    -20.07102078	     -1.64241623	     14.35015969
      1.00833333	      9.34805983	     -0.05652601	    -12.00533353	      0.51128825	      1.04672443	      0.30641410	     -3.16397879	     -0.99814839	     -6.06892284	    -22.20479762	     -0.10956358	      3.96521485	     41.56931298	     12.55477940	     -0.48431265	     -5.93574074	    -68.42324197	    -11.30834448	      0.00000000	      0.00000000	      0.00000000	      0.05564908	      0.00000000	      1.76040194	    -20.05581240	     -1.75785343	     14.43403312
      1.01250000	      9.40987904	     -0.16417823	    -12.15920034	      0.51587716	      1.04759453	      0.30659975	     -3.75348114	     -1.03067752	     -6.21655895	    -21.69085401	     -0.56502556	      4.71488884	     41.84614526	     12.56001767	     -0.44638309	     -5.55256399	    -67.33367370	    -11.30492021	      0.00000000	      0.00000000	      0.00000000	      0.05356190	      0.00000000	      1.76776703	    -20.14711047	     -1.65989953	     14.75217683
      1.01666667	      9.36314144	     -0.14499966	    -12.36195015	      0.52008352	      1.04816369	      0.30714730	     -4.02815849	     -1.13301706	     -6.23042580	    -21.54626749	     -0.52033454	      4.81686762	     41.79358973	     12.84115663	     -0.40555628	     -5.34212749	    -66.41574026	    -11.30157694	      0.00000000	      0.00000000	      0.00000000	      0.05216783	      0.00000000	      1.68063099	    -20.12827804	     -1.76370527	     14.74239849
      1.02083333	      9.60372071	     -0.17224602	    -12.39151544	      0.52471068	      1.04907919	      0.30726316	     -4.75718061	     -1.34386989	     -6.76197883	    -21.12559208	     -1.06517433	      5.83466743	     43.97043918	     12.66213688	     -0.23104078	     -4.85450031	    -65.26111129	    -11.29356482	      0.00000000	      0.00000000	      0.00000000	      0.05011640	      0.00000000	      1.59065576	    -20.41196038	     -1.80569848	     14.74730318
      1.02500000	      9.52612193	     -0.20486961	    -12.65834513	      0.52869256	      1.04943250	      0.30771058	     -4.88475913	     -1.42035937	     -6.78384880	    -21.18873155	     -1.04398525	      5.82643841	     43.82032522	     12.93676219	     -0.22943477	     -4.59975149	    -64.29178832	    -11.29005970	      0.00000000	      0.00000000	      0.00000000	      0.04856901	      0.00000000	      1.69233540	    -20.41559495	     -1.81341218	     14.72024779
      1.02916667	      9.42137748	     -0.26500058	    -12.74579043	      0.53333944	      1.05002009	      0.30812171	     -5.39178525	     -1.36953099	     -6.69889410	    -20.50615208	     -1.25047035	      6.17252338	     43.75512896	     13.14714407	     -0.23204224	     -4.16692251	    -63.18542232	    -11.28641927	      0.00000000	      0.00000000	      0.00000000	      0.04687577	      0.00000000	      1.52117664	    -20.27461822	     -1.78502832	     14.98250842
      1.03333333	      9.33801257	     -0.31228566	    -13.01518253	      0.53722733	      1.05029681	      0.30866938	     -5.49227043	     -1.42960566	     -6.73447844	    -20.61010433	     -1.23579995	      6.16652764	     43.60201174	     13.41784393	     -0.26883453	     -3.88652343	    -62.18278854	    -11.27879683	      0.00000000	      0.00000000	      0.00000000	      0.04542756	      0.00000000	      1.62772576	    -20.31633202	     -1.81606171	     14.94539040
      1.03750000	      9.22637409	     -0.34104910	    -13.04970441	      0.54175055	      1.05075062	      0.30906722	     -5.96759985	     -1.38442300	     -6.62133061	    -19.97942794	     -1.31180987	      6.45522288	     43.53520366	     13.68975304	     -0.25563498	     -3.42746635	    -61.12626429	    -11.27858374	      0.00000000	      0.00000000	      0.00000000	      0.04394445	      0.00000000	      1.33666855	    -20.15521508	     -1.80419954	     15.12762112
      1.04166667	      9.12342844	     -0.44724749	    -13.19740248	      0.54592937	      1.05102249	      0.30939910	     -6.24006747	     -1.33620532	     -6.60980871	    -19.75432879	     -1.44153325	      6.60198217	     43.57252774	     13.90696239	     -0.30734188	     -2.94931395	    -60.02998549	    -11.27221800	      0.00000000	      0.00000000	      0.00000000	      0.04227690	      0.00000000	      1.40452956	    -20.13003890	     -1.71306652	     15.22208119
      1.04583333	      9.15113670	     -0.68837616	    -13.25431477	      0.55033014	      1.05149915	      0.30977038	     -6.85366895	     -1.15146159	     -6.67388644	    -19.18548488	     -1.86579909	      7.06518903	     43.74666674	     13.92777320	     -0.50233717	     -2.46590756	    -58.90612866	    -11.26449620	      0.00000000	      0.00000000	      0.00000000	      0.04041868	      0.00000000	      1.23803397	    -20.23181055	     -1.51020216	     15.46364021
      1.05000000	      9.06484565	     -0.75119261	    -13.40185645	      0.55437449	      1.05166591	      0.31024224	     -7.09559025	     -1.14391604	     -6.66027300	    -19.04022568	     -1.86599824	      7.12914541	     43.79545826	     14.17118183	     -0.54838850	     -2.02458109	    -57.85154126	    -11.25739572	      0.00000000	      0.00000000	      0.00000000	      0.03907600	      0.00000000	      1.25125050	    -20.21406083	     -1.50005682	     15.48752034
      1.05416667	      8.94779617	     -0.84258672	    -13.53250281	      0.55851817	      1.05179430	      0.31071736	     -7.36309493	     -1.09013293	     -6.64630788	    -18.79821334	     -1.90223691	      7.22766500	     43.83742657	     14.40515597	     -0.63163427	     -1.54393590	    -56.73794964	    -11.25232337	      0.00000000	      0.00000000	      0.00000000	      0.03756972	      0.00000000	      1.18430134	    -20.15965132	     -1.45008494	     15.54251389
